PathFileType	4	(X/Y/Z)	RBDS002\RBDS002runT35.trc
DataRate	CameraRate	NumFrames	NumMarkers	Units	OrigDataRate	OrigDataStartFrame	OrigNumFrames
150.000000	150.000000	4	33	mm	150.000000	2250	4500
Frame#	Time	L.ASIS			L.Heel.Bottom			L.Heel.Lateral			L.Heel.Top			L.Iliac.Crest			L.MT1			L.MT5			L.PSIS			L.Shank.Bottom.Lateral			L.Shank.Bottom.Medial			L.Shank.Top.Lateral			L.Shank.Top.Medial			L.Thigh.Bottom.Lateral			L.Thigh.Bottom.Medial			L.Thigh.Top.Lateral			L.Thigh.Top.Medial			R.ASIS			R.ASY			R.Heel.Bottom			R.Heel.Lateral			R.Heel.Top			R.Iliac.Crest			R.MT1			R.MT5			R.PSIS			R.Shank.Bottom.Lateral			R.Shank.Bottom.Medial			R.Shank.Top.Lateral			R.Shank.Top.Medial			R.Thigh.Bottom.Lateral			R.Thigh.Bottom.Medial			R.Thigh.Top.Lateral			R.Thigh.Top.Medial			
		X1	Y1	Z1	X2	Y2	Z2	X3	Y3	Z3	X4	Y4	Z4	X5	Y5	Z5	X6	Y6	Z6	X7	Y7	Z7	X8	Y8	Z8	X9	Y9	Z9	X10	Y10	Z10	X11	Y11	Z11	X12	Y12	Z12	X13	Y13	Z13	X14	Y14	Z14	X15	Y15	Z15	X16	Y16	Z16	X17	Y17	Z17	X18	Y18	Z18	X19	Y19	Z19	X20	Y20	Z20	X21	Y21	Z21	X22	Y22	Z22	X23	Y23	Z23	X24	Y24	Z24	X25	Y25	Z25	X26	Y26	Z26	X27	Y27	Z27	X28	Y28	Z28	X29	Y29	Z29	X30	Y30	Z30	X31	Y31	Z31	X32	Y32	Z32	X33	Y33	Z33	

2251	15	2239.548974174982	954.9268611418964	924.5681409721155	1643.838317479437	515.4614056774381	978.8132926611096	1645.442450482546	492.1740883224317	925.669839254395	1690.33382268018	496.1130304591211	969.3520589268769	2177.200036865596	1041.039217419765	864.9778745343791	1618.789709387036	283.6808471020024	970.9418053083161	1604.778943678907	339.726683475542	870.5820973600338	2053.131672807361	996.248573427205	964.9880937006002	1758.071078518205	442.2367616947628	896.3027963960524	1758.139124605683	479.0063956852806	932.6000013359222	1836.220430627897	455.3645612394225	879.2140248107409	1840.026068464067	492.646056260268	916.8492015526707	2101.744823200416	517.2989805102029	870.09879563698	2060.545298766262	520.3049888618035	931.468680265188	2094.025353540517	627.5672279093923	863.8767480840875	2058.330298963851	630.309553490689	922.7756996823838	2229.055437784692	984.3856103944007	1132.170561521172	2347.076222884688	86.80465222841903	1031.634178204186	2156.229584853003	40.54389630808896	1031.319700445047	2180.962660416401	53.31325819651244	1070.208605633535	2173.043869146024	89.63062755658201	1030.095603221869	2127.946796106294	1050.813336357528	1181.739573219742	2391.889606221313	51.21051178657085	988.3895057324931	2358.800493403166	43.29371499745231	1098.975221964441	2042.64854219374	1002.802584101214	1053.929932219738	2255.781246294832	165.3135811350176	1094.67140723711	2213.251593383537	182.3056881852365	1064.658988336176	2265.327260131756	242.0761762933221	1120.243387661591	2225.944279596385	258.3363546236749	1086.420432151368	2293.249954231909	578.9600861496639	1156.012655656225	2242.219383034914	558.5682222812418	1106.801427040977	2230.803012708922	666.6174606734611	1181.619569574222	2180.120572614309	644.0168283896488	1138.356056609441	
2252	15.00666666666667	2238.894885987526	948.6348308554553	925.4934052163183	1658.75171403416	514.4415979394538	980.674920433711	1660.334739692551	492.1155652907464	927.1792799344643	1705.276970621011	495.3726759474582	970.8151796623756	2177.702741231214	1034.283307512582	864.8901014861613	1634.054267608605	282.7232983104386	968.9063376737213	1619.859338196843	340.4656974921464	869.4898642325508	2052.105316184527	991.2788776680239	964.1569160513853	1773.198625129305	441.4188655973583	896.0615318035677	1774.105751929493	477.8879039870342	932.735812507865	1851.565087675498	453.4147368831443	878.7857051392876	1856.114771430842	490.2526756297106	916.8118383103032	2112.974191493318	510.9881754399574	867.8057683592665	2071.504287836181	512.4726952537497	929.0656769390019	2101.965416318897	620.9570076044104	862.1286924163544	2065.685096166375	622.3860104280119	920.7420188670634	2226.959030253151	979.344028606993	1132.573156506253	2324.587270811553	86.42816255342861	1029.361006923096	2133.425153709935	41.90997312240373	1030.232389487471	2158.35845482895	55.27297570758039	1068.871471982824	2150.771165243108	90.88597973107426	1028.003344374423	2127.857271080519	1043.930576697998	1182.298160683313	2369.158956516227	50.82898743259845	987.2064640481677	2335.820844746629	44.25861171034371	1097.791535414395	2041.211830047493	998.5804518562096	1053.028285293056	2237.791619365399	165.2802236127629	1092.363237784708	2195.841038082203	184.2075802894106	1062.629390897029	2250.756723572913	241.4312820594931	1118.374291617739	2211.991206250813	259.4732918475334	1084.670859966759	2289.226003039559	573.9616056746077	1155.061398981007	2238.708859853807	554.6639295848121	1104.906549645129	2227.0884896177	661.7840260184372	1181.042883692897	2176.754748903393	640.0751189588764	1136.960692852884	
2253	15.01333333333333	2237.926590792641	942.8017079527409	926.4353608616595	1673.861671080661	512.4962609702228	982.1948806478471	1675.516393478747	491.0226442322518	928.4337302555865	1720.488964951209	493.8498193266131	971.9867633367174	2177.367809849169	1028.157793675268	864.8719816339683	1650.272699729407	280.7419391423259	967.0919470063969	1635.718424962092	339.8847952202774	868.4978185391005	2050.82861588802	987.0975374096618	963.4894639950068	1788.826593854885	439.9764420633727	895.7828803794949	1790.35886315692	476.1819022327728	932.7672468937373	1867.330480012011	451.1702229167772	878.336127112748	1872.442063077444	487.6199488061011	916.7002586430622	2125.002566766731	505.4641790191474	865.5040641477297	2083.186059615287	505.4273789625217	926.5355112614759	2110.473075087982	614.9707550256961	860.1020221934152	2073.444363269907	615.0789853308081	918.2789975578127	2224.644245974355	974.7162513174934	1133.053812910638	2301.851364610411	86.41488280667959	1027.713072665744	2110.511069960952	43.31934788825725	1029.389886164005	2135.60805642325	57.10198614918334	1067.844306546046	2128.266614654123	92.18172438209912	1026.434993846741	2127.531875511699	1037.553009894337	1182.876261494704	2346.206251641388	50.90102212361495	986.4494498961329	2312.676070227134	45.18941016984467	1096.88680270738	2039.589580415321	995.0248760570345	1052.223045610138	2219.279497842374	165.5811124600644	1090.618205916708	2177.984082642263	186.3225258937195	1061.135308624931	2235.524534303036	241.0280981808088	1116.921540554517	2197.423254958183	260.7279045036203	1083.32343798373	2284.305024961778	569.2200092431674	1154.090810159086	2234.290142124826	551.0935651714311	1103.014389914107	2222.6643879369	657.3249357001586	1180.446024360416	2172.680266786941	636.631488110861	1135.521091570003	
2254	15.02	2236.674029371009	937.6248278282511	927.3201134268934	1689.039746027046	509.6392638540206	983.2699204618307	1690.889542033692	488.8731363999518	929.338696623083	1735.843914098015	491.562441187137	972.8045090056838	2176.162013899671	1022.840450455026	864.9005274814723	1667.408994299155	277.7398833644272	965.5369731175789	1652.346664794861	337.9213593752405	867.5935180853924	2049.333925597893	983.7233989114987	963.0043097470068	1804.865445684418	437.9227896226623	895.4776692278633	1806.783472567169	473.9196325846074	932.6905810650596	1883.426706697861	448.6826707922086	877.8754113565151	1888.899205535792	484.8286766838734	916.5071254682197	2137.81034424378	500.9083453950926	863.2931592854729	2095.585691085335	499.3355021542574	923.968896660238	2119.546247798148	609.7759227660994	857.884632574874	2081.641710487486	608.5234297480898	915.4808820172146	2222.216315945195	970.602176280426	1133.601556344973	2278.911956229945	86.55585742754889	1026.677596272521	2087.489460933413	44.65280850570456	1028.823582867692	2112.716095270624	58.68070801307868	1067.155933890722	2105.563597132648	93.3995510262456	1025.403160253864	2126.924210976109	1031.907278290812	1183.432511398814	2323.058021934282	51.18046738456602	986.0947076543384	2289.391808797036	45.92420581625817	1096.285419405052	2037.849978506972	992.1452116208818	1051.525649721551	2200.274764451165	165.991926888909	1089.456680926136	2159.670606293452	188.4065577734042	1060.226668590235	2219.625942117736	240.6609672256459	1115.916919724611	2182.196053875738	261.8862600518474	1082.440124765986	2278.341251474448	564.6674502275902	1153.140875145943	2228.778677676046	547.7870762693495	1101.193999404785	2217.454925278902	653.2221904583313	1179.833088369958	2167.798862751125	633.6721892592117	1134.062661148984	
